sprint_grf
version=1
nRows=7
nColumns=73
inDegrees=no
endheader
time	ground_force_1_vx	ground_force_1_vy	ground_force_1_vz	ground_force_1_px	ground_force_1_py	ground_force_1_pz	ground_force_1_mx	ground_force_1_my	ground_force_1_mz	ground_force_2_vx	ground_force_2_vy	ground_force_2_vz	ground_force_2_px	ground_force_2_py	ground_force_2_pz	ground_force_2_mx	ground_force_2_my	ground_force_2_mz	ground_force_3_vx	ground_force_3_vy	ground_force_3_vz	ground_force_3_px	ground_force_3_py	ground_force_3_pz	ground_force_3_mx	ground_force_3_my	ground_force_3_mz	ground_force_4_vx	ground_force_4_vy	ground_force_4_vz	ground_force_4_px	ground_force_4_py	ground_force_4_pz	ground_force_4_mx	ground_force_4_my	ground_force_4_mz	ground_force_5_vx	ground_force_5_vy	ground_force_5_vz	ground_force_5_px	ground_force_5_py	ground_force_5_pz	ground_force_5_mx	ground_force_5_my	ground_force_5_mz	ground_force_6_vx	ground_force_6_vy	ground_force_6_vz	ground_force_6_px	ground_force_6_py	ground_force_6_pz	ground_force_6_mx	ground_force_6_my	ground_force_6_mz	ground_force_7_vx	ground_force_7_vy	ground_force_7_vz	ground_force_7_px	ground_force_7_py	ground_force_7_pz	ground_force_7_mx	ground_force_7_my	ground_force_7_mz	ground_force_8_vx	ground_force_8_vy	ground_force_8_vz	ground_force_8_px	ground_force_8_py	ground_force_8_pz	ground_force_8_mx	ground_force_8_my	ground_force_8_mz
      0.97200000	      0.00000000	      0.00000000	      0.00000000	      0.00000000	      0.00000000	      0.00000000	      0.00000000	      0.00000000	      0.00000000	     -0.00000000	     -0.00000000	     -0.00000000	     -0.00000000	      0.00000000	      0.00000000	     -0.00000000	     -0.00000000	      0.00000000	      0.00000000	      0.00000000	      0.00000000	      0.00000000	      0.00000000	      0.00000000	      0.00000000	      0.00000000	      0.00000000	      0.00000000	      0.00000000	     -0.00000000	      0.00000000	      0.00000000	     -0.00000000	      0.00000000	     -0.00000000	     -0.00000000	      0.00000000	      0.00000000	      0.00000000	      0.00000000	      0.00000000	      0.00000000	      0.00000000	      0.00000000	      0.00000000	      0.00000000	      0.00000000	      0.00000000	      0.00000000	      0.00000000	      0.00000000	      0.00000000	      0.00000000	      0.00000000	      0.07293489	      0.05639019	      0.01349115	     -0.00159744	      0.00000000	     -0.00017075	     -0.00000000	     -0.00109979	      0.00000000	      0.00307727	     -0.00380969	     -0.00679158	      0.00044642	      0.00000000	      0.00001674	      0.00000000	     -0.00038798	      0.00000000
      0.97300000	      0.00000000	      0.00000000	      0.00000000	      0.00000000	      0.00000000	      0.00000000	      0.00000000	      0.00000000	      0.00000000	     -0.00000000	     -0.00000000	     -0.00000000	     -0.00000000	      0.00000000	      0.00000000	     -0.00000000	     -0.00000000	     -0.00000000	      0.00000000	      0.00000000	      0.00000000	      0.00000000	      0.00000000	      0.00000000	      0.00000000	      0.00000000	      0.00000000	      0.00000000	      0.00000000	     -0.00000000	      0.00000000	      0.00000000	     -0.00000000	      0.00000000	     -0.00000000	     -0.00000000	      0.00000000	      0.00000000	      0.00000000	      0.00000000	      0.00000000	      0.00000000	      0.00000000	      0.00000000	      0.00000000	      0.00000000	      0.00000000	      0.00000000	      0.00000000	      0.00000000	      0.00000000	      0.00000000	      0.00000000	      0.00000000	      0.07500658	      0.06123939	      0.00520546	      0.00013870	      0.00000000	      0.00004373	     -0.00000000	     -0.00068138	      0.00000000	     -0.00628081	      0.00480862	     -0.00379625	      0.00048651	      0.00000000	      0.00001859	      0.00000000	     -0.00036886	      0.00000000
      0.97400000	      0.00000000	      0.00000000	      0.00000000	      0.00000000	      0.00000000	      0.00000000	      0.00000000	      0.00000000	      0.00000000	     -0.00000000	     -0.00000000	     -0.00000000	     -0.00000000	      0.00000000	      0.00000000	     -0.00000000	     -0.00000000	     -0.00000000	      0.00000000	      0.00000000	      0.00000000	      0.00000000	      0.00000000	      0.00000000	      0.00000000	      0.00000000	      0.00000000	      0.00000000	      0.00000000	     -0.00000000	      0.00000000	      0.00000000	     -0.00000000	      0.00000000	     -0.00000000	     -0.00000000	      0.00000000	      0.00000000	      0.00000000	      0.00000000	      0.00000000	      0.00000000	      0.00000000	      0.00000000	      0.00000000	      0.00000000	      0.00000000	      0.00000000	      0.00000000	      0.00000000	      0.00000000	      0.00000000	      0.00000000	      0.00000000	      0.07076282	      0.06032759	     -0.00189873	      0.00153004	      0.00000000	      0.00021351	     -0.00000000	     -0.00028986	      0.00000000	     -0.01725094	      0.01500676	      0.00028174	      0.00048865	      0.00000000	      0.00001906	     -0.00000000	     -0.00030920	      0.00000000
      0.97500000	      0.00000000	      0.00000000	      0.00000000	      0.00000000	      0.00000000	      0.00000000	      0.00000000	      0.00000000	      0.00000000	     -0.00000000	     -0.00000000	     -0.00000000	      0.00000000	      0.00000000	     -0.00000000	     -0.00000000	     -0.00000000	     -0.00000000	      0.00000000	      0.00000000	      0.00000000	      0.00000000	      0.00000000	      0.00000000	      0.00000000	      0.00000000	      0.00000000	      0.00000000	      0.00000000	     -0.00000000	      0.00000000	      0.00000000	     -0.00000000	      0.00000000	      0.00000000	     -0.00000000	      0.00000000	      0.00000000	      0.00000000	      0.00000000	      0.00000000	      0.00000000	      0.00000000	      0.00000000	      0.00000000	      0.00000000	      0.00000000	      0.00000000	      0.00000000	      0.00000000	      0.00000000	      0.00000000	      0.00000000	      0.00000000	      0.06075697	      0.05387500	     -0.00716722	      0.00245120	      0.00000000	      0.00032337	     -0.00000000	      0.00003793	     -0.00000000	     -0.02940628	      0.02643480	      0.00556257	      0.00043069	      0.00000000	      0.00001731	     -0.00000000	     -0.00019298	      0.00000000
      0.97600000	      0.00000000	      0.00000000	      0.00000000	      0.00000000	      0.00000000	      0.00000000	      0.00000000	      0.00000000	      0.00000000	     -0.00000000	     -0.00000000	      0.00000000	      0.00000000	      0.00000000	     -0.00000000	     -0.00000000	     -0.00000000	     -0.00000000	      0.00000000	      0.00000000	      0.00000000	      0.00000000	      0.00000000	      0.00000000	      0.00000000	      0.00000000	      0.00000000	      0.00000000	      0.00000000	     -0.00000000	      0.00000000	      0.00000000	     -0.00000000	     -0.00000000	      0.00000000	     -0.00000000	      0.00000000	      0.00000000	      0.00000000	      0.00000000	      0.00000000	      0.00000000	      0.00000000	      0.00000000	      0.00000000	      0.00000000	      0.00000000	      0.00000000	      0.00000000	      0.00000000	      0.00000000	      0.00000000	      0.00000000	      0.00000000	      0.04788337	      0.04441564	     -0.01085839	      0.00300202	      0.00000000	      0.00038661	     -0.00000000	      0.00029964	     -0.00000000	     -0.04158190	      0.03800021	      0.01155614	      0.00031691	      0.00000000	      0.00001345	     -0.00000000	     -0.00003030	      0.00000000
      0.97700000	      0.00000000	      0.00000000	      0.00000000	      0.00000000	      0.00000000	      0.00000000	      0.00000000	      0.00000000	      0.00000000	     -0.00000000	     -0.00000000	      0.00000000	      0.00000000	      0.00000000	     -0.00000000	     -0.00000000	     -0.00000000	     -0.00000000	      0.00000000	      0.00000000	      0.00000000	      0.00000000	      0.00000000	      0.00000000	      0.00000000	      0.00000000	      0.00000000	      0.00000000	      0.00000000	      0.00000000	      0.00000000	      0.00000000	     -0.00000000	     -0.00000000	      0.00000000	     -0.00000000	      0.00000000	      0.00000000	      0.00000000	      0.00000000	      0.00000000	      0.00000000	      0.00000000	      0.00000000	      0.00000000	      0.00000000	      0.00000000	      0.00000000	      0.00000000	      0.00000000	      0.00000000	      0.00000000	      0.00000000	      0.00000000	      0.03344232	      0.03292512	     -0.01265422	      0.00313820	      0.00000000	      0.00039824	     -0.00000000	      0.00047174	     -0.00000000	     -0.05228365	      0.04835185	      0.01793229	      0.00012920	      0.00000000	      0.00000675	     -0.00000000	      0.00018553	      0.00000000
      0.97800000	      0.00000000	      0.00000000	      0.00000000	      0.00000000	      0.00000000	      0.00000000	      0.00000000	      0.00000000	      0.00000000	     -0.00000000	     -0.00000000	      0.00000000	      0.00000000	      0.00000000	     -0.00000000	     -0.00000000	     -0.00000000	     -0.00000000	      0.00000000	      0.00000000	      0.00000000	      0.00000000	      0.00000000	      0.00000000	      0.00000000	      0.00000000	      0.00000000	      0.00000000	      0.00000000	      0.00000000	     -0.00000000	      0.00000000	      0.00000000	     -0.00000000	      0.00000000	      0.00000000	      0.00000000	      0.00000000	      0.00000000	      0.00000000	      0.00000000	      0.00000000	      0.00000000	      0.00000000	      0.00000000	      0.00000000	      0.00000000	      0.00000000	      0.00000000	      0.00000000	      0.00000000	      0.00000000	      0.00000000	      0.00000000	      0.01914027	      0.02104784	     -0.01310726	      0.00300078	      0.00000000	      0.00037624	     -0.00000000	      0.00057353	     -0.00000000	     -0.06042746	      0.05644607	      0.02407442	     -0.00011574	      0.00000000	     -0.00000221	     -0.00000000	      0.00043458	      0.00000000
